<svg width="56" height="56" viewBox="0 0 56 56" fill="none" xmlns="http://www.w3.org/2000/svg">
<path d="M12 28C12 19.1634 19.1634 12 28 12C36.8366 12 44 19.1634 44 28C44 36.8366 36.8366 44 28 44C19.1634 44 12 36.8366 12 28Z" fill="#F29100"/>
<path opacity="0.32" d="M6 28C6 15.8497 15.8497 6 28 6C40.1503 6 50 15.8497 50 28C50 40.1503 40.1503 50 28 50C15.8497 50 6 40.1503 6 28Z" fill="#F29100"/>
<path opacity="0.16" d="M0 28C0 12.536 12.536 0 28 0C43.464 0 56 12.536 56 28C56 43.464 43.464 56 28 56C12.536 56 0 43.464 0 28Z" fill="#F29100"/>
<path d="M20.6733 24.6661C20.9232 24.4371 21.2165 24.2605 21.5358 24.1469C21.8551 24.0332 22.194 23.9847 22.5324 24.0042H35.1299L33.3897 25.8485H25.7896C25.6795 25.8403 25.5691 25.8568 25.4662 25.8967C25.3633 25.9366 25.2705 25.9988 25.1947 26.079C25.0744 26.2195 25.0107 26.3998 25.0162 26.5847C25.0326 26.7719 25.1081 26.949 25.2319 27.0904C25.3021 27.1695 25.3897 27.2314 25.4876 27.2713C25.5856 27.3113 25.6915 27.3283 25.797 27.3209H33.9251C34.2383 27.3096 34.5506 27.3603 34.8441 27.4701C35.1376 27.5798 35.4066 27.7465 35.6355 27.9604C36.0658 28.4217 36.305 29.0289 36.305 29.6597C36.305 30.2904 36.0658 30.8977 35.6355 31.3589C35.4066 31.5729 35.1376 31.7395 34.8441 31.8493C34.5506 31.959 34.2383 32.0097 33.9251 31.9985H20.123L21.7069 30.2286H30.8687C30.9566 30.2333 31.0444 30.2168 31.1246 30.1806C31.2048 30.1444 31.2752 30.0894 31.3298 30.0203C31.4215 29.8841 31.4706 29.7236 31.4706 29.5593C31.4706 29.395 31.4215 29.2345 31.3298 29.0982C31.2779 29.0299 31.2102 28.9752 31.1325 28.9389C31.0547 28.9026 30.9693 28.8858 30.8836 28.89H22.5027C22.1757 28.8932 21.8508 28.8378 21.5433 28.7264C21.2442 28.6232 20.9686 28.4614 20.7328 28.2505C20.5048 28.0423 20.3224 27.7891 20.1973 27.5068C20.0608 27.1876 19.9948 26.8426 20.004 26.4954C19.9849 26.1621 20.0345 25.8284 20.1496 25.515C20.2647 25.2016 20.443 24.9152 20.6733 24.6735" fill="white"/>
</svg>
